<?xml version="1.0" encoding="UTF-8" standalone="no"?>
<!-- Created with Inkscape (http://www.inkscape.org/) -->

<svg
   width="7.3649826mm"
   height="55.771725mm"
   viewBox="0 0 7.3649826 55.771725"
   version="1.1"
   id="svg5"
   xmlns:inkscape="http://www.inkscape.org/namespaces/inkscape"
   xmlns:sodipodi="http://sodipodi.sourceforge.net/DTD/sodipodi-0.dtd"
   xmlns="http://www.w3.org/2000/svg"
   xmlns:svg="http://www.w3.org/2000/svg">
  <sodipodi:namedview
     id="namedview7"
     pagecolor="#ffffff"
     bordercolor="#000000"
     borderopacity="0.25"
     inkscape:showpageshadow="2"
     inkscape:pageopacity="0.0"
     inkscape:pagecheckerboard="0"
     inkscape:deskcolor="#d1d1d1"
     inkscape:document-units="mm"
     showgrid="false" />
  <defs
     id="defs2" />
  <g
     inkscape:label="Layer 1"
     inkscape:groupmode="layer"
     id="layer1"
     transform="translate(-119.38759,-39.043719)">
    <g
       id="g3012"
       transform="matrix(0.30589891,0,0,0.34097994,119.38759,39.043722)">
      <path
         id="path2848"
         style="fill:#000000;stroke-width:0"
         d="M 12.038273,0 A 12.038353,12.355515 0 0 0 0,12.355389 12.038353,12.355515 0 0 0 6.8620504,23.504198 V 81.781523 H 17.214912 V 23.504198 A 12.038353,12.355515 0 0 0 24.076538,12.355389 12.038353,12.355515 0 0 0 12.038273,0 Z" />
      <path
         id="path2848-6"
         style="fill:none;stroke-width:0"
         d="M 12.038273,81.781523 A 12.038353,12.355515 0 0 0 0,94.136912 12.038353,12.355515 0 0 0 6.8620501,105.28572 v 58.27733 H 17.214912 V 105.28572 A 12.038353,12.355515 0 0 0 24.076538,94.136912 12.038353,12.355515 0 0 0 12.038273,81.781523 Z" />
    </g>
  </g>
</svg>
